<mxfile host="65bd71144e">
    <diagram id="t8QoFsj8MZgXzhcuyan1" name="Page-1">
        <mxGraphModel dx="933" dy="1270" grid="1" gridSize="10" guides="1" tooltips="1" connect="1" arrows="1" fold="1" page="1" pageScale="1" pageWidth="2339" pageHeight="3300" math="0" shadow="0">
            <root>
                <mxCell id="0"/>
                <mxCell id="1" parent="0"/>
                <mxCell id="2" value="TCADM1896117" style="rounded=1;fontFamily=Alegreya Sans;fontSource=https%3A%2F%2Ffonts.googleapis.com%2Fcss%3Ffamily%3DAlegreya%2BSans;whiteSpace=wrap;" parent="1" vertex="1">
                    <mxGeometry x="575" y="130" width="90" height="30" as="geometry"/>
                </mxCell>
                <mxCell id="3" value="GBUM71029625" style="rounded=1;fontFamily=Alegreya Sans;fontSource=https%3A%2F%2Ffonts.googleapis.com%2Fcss%3Ffamily%3DAlegreya%2BSans;whiteSpace=wrap;" parent="1" vertex="1">
                    <mxGeometry x="410" y="210" width="100" height="30" as="geometry"/>
                </mxCell>
                <mxCell id="4" value="TCADM1954332" style="rounded=1;fontFamily=Alegreya Sans;fontSource=https%3A%2F%2Ffonts.googleapis.com%2Fcss%3Ffamily%3DAlegreya%2BSans;whiteSpace=wrap;" parent="1" vertex="1">
                    <mxGeometry x="730" y="210" width="100" height="30" as="geometry"/>
                </mxCell>
                <mxCell id="6" value="DELP50114552" style="rounded=1;fontFamily=Alegreya Sans;fontSource=https%3A%2F%2Ffonts.googleapis.com%2Fcss%3Ffamily%3DAlegreya%2BSans;whiteSpace=wrap;" parent="1" vertex="1">
                    <mxGeometry x="440" y="380" width="90" height="30" as="geometry"/>
                </mxCell>
                <mxCell id="17" value="" style="endArrow=blockThin;html=1;fontFamily=Alegreya;fontSource=https%3A%2F%2Ffonts.googleapis.com%2Fcss%3Ffamily%3DAlegreya;endFill=1;" parent="1" source="2" target="3" edge="1">
                    <mxGeometry width="50" height="50" relative="1" as="geometry">
                        <mxPoint x="420" y="240" as="sourcePoint"/>
                        <mxPoint x="470" y="190" as="targetPoint"/>
                    </mxGeometry>
                </mxCell>
                <mxCell id="18" value="" style="endArrow=blockThin;html=1;fontFamily=Alegreya;fontSource=https%3A%2F%2Ffonts.googleapis.com%2Fcss%3Ffamily%3DAlegreya;endFill=1;" parent="1" source="2" target="4" edge="1">
                    <mxGeometry width="50" height="50" relative="1" as="geometry">
                        <mxPoint x="730" y="200" as="sourcePoint"/>
                        <mxPoint x="640" y="255.38461538461547" as="targetPoint"/>
                    </mxGeometry>
                </mxCell>
                <mxCell id="22" value="" style="endArrow=blockThin;html=1;fontFamily=Alegreya;fontSource=https%3A%2F%2Ffonts.googleapis.com%2Fcss%3Ffamily%3DAlegreya;endFill=1;" parent="1" source="23" target="6" edge="1">
                    <mxGeometry width="50" height="50" relative="1" as="geometry">
                        <mxPoint x="530" y="270" as="sourcePoint"/>
                        <mxPoint x="440" y="325.3846153846155" as="targetPoint"/>
                    </mxGeometry>
                </mxCell>
                <mxCell id="23" value="DELJ82051118" style="rounded=1;fontFamily=Alegreya Sans;fontSource=https%3A%2F%2Ffonts.googleapis.com%2Fcss%3Ffamily%3DAlegreya%2BSans;whiteSpace=wrap;" parent="1" vertex="1">
                    <mxGeometry x="335" y="290" width="90" height="30" as="geometry"/>
                </mxCell>
                <mxCell id="24" value="USSM17500423" style="rounded=1;fontFamily=Alegreya Sans;fontSource=https%3A%2F%2Ffonts.googleapis.com%2Fcss%3Ffamily%3DAlegreya%2BSans;whiteSpace=wrap;" parent="1" vertex="1">
                    <mxGeometry x="825" y="290" width="90" height="30" as="geometry"/>
                </mxCell>
                <mxCell id="25" value="" style="endArrow=blockThin;html=1;fontFamily=Alegreya;fontSource=https%3A%2F%2Ffonts.googleapis.com%2Fcss%3Ffamily%3DAlegreya;endFill=1;" parent="1" source="3" target="23" edge="1">
                    <mxGeometry width="50" height="50" relative="1" as="geometry">
                        <mxPoint x="370" y="250" as="sourcePoint"/>
                        <mxPoint x="420" y="300" as="targetPoint"/>
                    </mxGeometry>
                </mxCell>
                <mxCell id="26" value="" style="endArrow=blockThin;html=1;fontFamily=Alegreya;fontSource=https%3A%2F%2Ffonts.googleapis.com%2Fcss%3Ffamily%3DAlegreya;endFill=1;" parent="1" source="4" target="24" edge="1">
                    <mxGeometry width="50" height="50" relative="1" as="geometry">
                        <mxPoint x="730" y="280" as="sourcePoint"/>
                        <mxPoint x="780" y="330" as="targetPoint"/>
                    </mxGeometry>
                </mxCell>
            </root>
        </mxGraphModel>
    </diagram>
</mxfile>
